# xmcd
#
# Track frame offsets:
#	150
#	19867
#	32760
#	41733
#	52445
#	61351
#	72931
#	81577
#	95599
#	100771
#	114718
#	119000
#	130261
#	142235
#	153749
#	157113
#	171393
#	181471
#	193414
#	197077
#	208579
#	222932
#	235308
#	240278
#	251459
#	262693
#	275868
#
# Disc length: 3994 seconds
#
# Revision: 0
# Processed by: cddbd v1.5.1PL0 Copyright (c) Steve Scherf et al.
# Submitted via: audiograbber 1.81.03
#
DISCID=af0f981b
DTITLE=Wanda Jackson - Live and Still Kickin'
DYEAR=2003
DGENRE=Rock and Roll
TTITLE0=Rock-A-Billy Fever
TTITLE1=Old Time Rock And Roll
TTITLE2=Rock'N'Roll Journey
TTITLE3=Mean, Mean Man
TTITLE4=I'm A Singer
TTITLE5=I Gotta Know
TTITLE6=Guitar In All The Right Places
TTITLE7=Blue Yodel No. 6
TTITLE8=My Mentor
TTITLE9=Wild Side of Life - Honky Tonk Angels
TTITLE10=When I Was Young Girl
TTITLE11=Lovesick Blues
TTITLE12=No. 1 In Japan
TTITLE13=Fujiyama Mama
TTITLE14=For All The Girls
TTITLE15=Hot Dog! That Made Him Mad
TTITLE16=Toot Your Own Horn
TTITLE17=Right Or Wrong
TTITLE18=The One Joint I Missed
TTITLE19=Riot In Cell Block No
TTITLE20=This Guy Was Different
TTITLE21=One Night With You
TTITLE22=The Very Best Thing
TTITLE23=I Saw The Light
TTITLE24=Grab A D Chord And Hold On
TTITLE25=Let's Have A Party
TTITLE26=Whole Lotta Shakin'  -  Rip It Up
EXTD=
EXTT0=
EXTT1=
EXTT2=
EXTT3=
EXTT4=
EXTT5=
EXTT6=
EXTT7=
EXTT8=
EXTT9=
EXTT10=
EXTT11=
EXTT12=
EXTT13=
EXTT14=
EXTT15=
EXTT16=
EXTT17=
EXTT18=
EXTT19=
EXTT20=
EXTT21=
EXTT22=
EXTT23=
EXTT24=
EXTT25=
EXTT26=
PLAYORDER=
